<?xml version="1.0" encoding="UTF-8"?>
<svg id="Layer_1" data-name="Layer 1" xmlns="http://www.w3.org/2000/svg" viewBox="0 0 250 150">
  <defs>
    <style>
      .cls-1 {
        fill: #58b0e2;
      }

      .cls-2 {
        fill: #c91f45;
      }
    </style>
  </defs>
  <path class="cls-2" d="M46.14,91.58h24.93v12.96h-9.6v1.79h9.6v6.23h-9.6v9.79h-15.33v-30.77Z"/>
  <path class="cls-2" d="M72.98,122.35v-30.77h15.29v30.77h-15.29Z"/>
  <path class="cls-2" d="M90.84,91.58h24.89v12.96h-9.6v1.79h9.6v2.8h-9.6v1.79h9.99v11.44h-25.28v-30.77Z"/>
  <path class="cls-2" d="M133.72,91.15c2.43,0,4.7.16,6.82.47,2.12.31,3.64.63,4.56.95l1.33.5v12.73c-2.4-1.1-5.68-1.65-9.86-1.65v1.15c3.85.3,6.62,1.07,8.31,2.32,1.69,1.25,2.54,3.13,2.54,5.66,0,3.02-1.23,5.37-3.69,7.03-2.46,1.66-6.25,2.49-11.37,2.49-2.93,0-5.52-.17-7.77-.51-2.25-.34-3.76-.68-4.54-1.01l-1.2-.54v-11.08c.26.12.66.29,1.2.5.53.21,1.73.47,3.57.8,1.85.32,3.85.49,5.98.49v-1.07c-3.61-.26-6.34-1.03-8.18-2.31-1.84-1.27-2.75-3.5-2.75-6.68s1.26-5.68,3.77-7.5c2.52-1.83,6.28-2.74,11.29-2.74Z"/>
  <path class="cls-2" d="M149.36,104.54v-12.96h27.37v12.96h-5.42v17.81h-16.62v-17.81h-5.34Z"/>
  <path class="cls-2" d="M195.89,122.35l-.27-4.76h-2.71l-.27,4.76h-13.99c.3-4.87.9-9.86,1.82-14.98.92-5.12,1.76-9.03,2.54-11.73l1.11-4.06h21.06c.32,1.07.74,2.56,1.24,4.46.5,1.9,1.24,5.54,2.22,10.93.98,5.39,1.65,10.51,2,15.38h-14.75ZM193.57,106.55l-.35,6.95h2.08l-.31-6.95h-1.43Z"/>
  <path class="cls-1" d="M44.93,36.79h33.84v17.61h-13.05v2.42h13.05v3.82h-13.05v2.42h13.6v15.56h-34.38v-41.83Z"/>
  <path class="cls-1" d="M103.25,36.17c3.3,0,6.39.22,9.27.64,2.88.42,4.94.86,6.2,1.3l1.81.66v17.31c-3.27-1.49-7.74-2.24-13.42-2.24v1.58c5.23.4,9,1.46,11.3,3.16,2.3,1.69,3.45,4.25,3.45,7.68,0,4.12-1.67,7.31-5.02,9.57-3.34,2.26-8.5,3.38-15.47,3.38-3.99,0-7.51-.23-10.58-.69-3.06-.46-5.11-.92-6.16-1.36l-1.63-.73v-15.07c.36.16.91.38,1.63.66.73.29,2.35.65,4.86,1.09,2.52.44,5.23.66,8.13.66v-1.45c-4.91-.36-8.62-1.41-11.12-3.15-2.5-1.74-3.74-4.77-3.74-9.09s1.71-7.72,5.13-10.2c3.43-2.49,8.55-3.73,15.36-3.73Z"/>
  <path class="cls-1" d="M124.52,54.4v-17.61h37.22v17.61h-7.38v24.22h-22.6v-24.22h-7.25Z"/>
  <path class="cls-1" d="M187.79,78.62l-.37-6.48h-3.68l-.36,6.48h-19.04c.4-6.62,1.23-13.41,2.48-20.37,1.25-6.97,2.4-12.28,3.45-15.95l1.52-5.51h28.64c.44,1.45,1.01,3.47,1.69,6.05.69,2.58,1.69,7.54,3.02,14.86,1.33,7.32,2.24,14.3,2.72,20.92h-20.06ZM184.65,57.13l-.49,9.45h2.84l-.43-9.45h-1.93Z"/>
</svg>