<?xml version="1.0" encoding="UTF-8"?>
<svg id="Layer_1" xmlns="http://www.w3.org/2000/svg" version="1.1" viewBox="0 0 250 150">
  <!-- Generator: Adobe Illustrator 29.3.1, SVG Export Plug-In . SVG Version: 2.1.0 Build 151)  -->
  <defs>
    <style>
      .st0 {
        fill: #58b0e2;
      }

      .st1 {
        fill: #c91f45;
      }
    </style>
  </defs>
  <path class="st1" d="M1.8,96h37.6v22.4h-14.5v3.1h14.5v10.8h-14.5v16.9H1.8v-53.3Z"/>
  <path class="st1" d="M42.3,149.2v-53.3h23.1v53.3s-23.1,0-23.1,0Z"/>
  <path class="st1" d="M69.3,96h37.6v22.4h-14.5v3.1h14.5v4.8h-14.5v3.1h15.1v19.8h-38.1v-53.3h0Z"/>
  <path class="st1" d="M134,95.2c3.7,0,7.1.3,10.3.8,3.2.5,5.5,1.1,6.9,1.6l2,.9v22c-3.6-1.9-8.6-2.9-14.9-2.9v2c5.8.5,10,1.9,12.5,4s3.8,5.4,3.8,9.8-1.9,9.3-5.6,12.2c-3.7,2.9-9.4,4.3-17.2,4.3s-8.3-.3-11.7-.9c-3.4-.6-5.7-1.2-6.8-1.7l-1.8-.9v-19.2c.4.2,1,.5,1.8.9.8.4,2.6.8,5.4,1.4,2.8.6,5.8.8,9,.8v-1.9c-5.4-.5-9.6-1.8-12.3-4-2.8-2.2-4.1-6.1-4.1-11.6s1.9-9.8,5.7-13c3.8-3.2,9.5-4.7,17-4.7h0Z"/>
  <path class="st1" d="M157.5,118.4v-22.4h41.3v22.4h-8.2v30.8h-25.1v-30.8h-8.1,0Z"/>
  <path class="st1" d="M227.7,149.2l-.4-8.2h-4.1l-.4,8.2h-21.1c.5-8.4,1.4-17.1,2.7-25.9,1.4-8.9,2.7-15.6,3.8-20.3l1.7-7h31.8c.5,1.9,1.1,4.4,1.9,7.7.8,3.3,1.9,9.6,3.3,18.9,1.5,9.3,2.5,18.2,3,26.6h-22.3,0ZM224.2,121.9l-.5,12h3.1l-.5-12h-2.2,0Z"/>
  <path class="st0" d="M0,1.1h51.1v30.5h-19.7v4.2h19.7v6.6h-19.7v4.2h20.5v26.9H0V1.1h0Z"/>
  <path class="st0" d="M88,0c5,0,9.6.4,14,1.1,4.3.7,7.5,1.5,9.4,2.3l2.7,1.1v30c-4.9-2.6-11.7-3.9-20.2-3.9v2.7c7.9.7,13.6,2.5,17,5.5,3.5,2.9,5.2,7.4,5.2,13.3s-2.5,12.7-7.6,16.6c-5,3.9-12.8,5.9-23.3,5.9s-11.3-.4-16-1.2c-4.6-.8-7.7-1.6-9.3-2.4l-2.5-1.3v-26.1c.5.3,1.4.7,2.5,1.1,1.1.5,3.5,1.1,7.3,1.9,3.8.8,7.9,1.1,12.3,1.1v-2.5c-7.4-.6-13-2.4-16.8-5.5s-5.6-8.3-5.6-15.7,2.6-13.4,7.7-17.7c5.2-4.3,12.9-6.5,23.2-6.5h0Z"/>
  <path class="st0" d="M120.1,31.6V1.1h56.2v30.5h-11.1v41.9h-34.1V31.6h-10.9,0Z"/>
  <path class="st0" d="M215.5,73.5l-.6-11.2h-5.6l-.5,11.2h-28.7c.6-11.5,1.9-23.2,3.7-35.3,1.9-12.1,3.6-21.3,5.2-27.6l2.3-9.5h43.2c.7,2.5,1.5,6,2.5,10.5,1,4.5,2.5,13.1,4.6,25.7,2,12.7,3.4,24.8,4.1,36.2h-30.3ZM210.8,36.3l-.7,16.4h4.3l-.6-16.4h-2.9,0Z"/>
</svg>